<svg width="30" height="30" viewBox="0 0 30 30" fill="none" xmlns="http://www.w3.org/2000/svg">
<g id="Layer_9.svg" clip-path="url(#clip0_1_321)">
<path id="Vector" d="M15 0C6.71581 0 0 6.71581 0 15C0 23.2842 6.71581 30 15 30C23.2842 30 30 23.2842 30 15C30 6.71581 23.2842 0 15 0ZM23.4378 6.97163L20.0792 22.7443C20.0164 23.0539 19.6634 23.2057 19.3955 23.0378L14.2307 19.6123L11.514 22.1405C11.2722 22.3474 10.8978 22.2466 10.7925 21.9461L9.02366 16.3673L4.27381 14.4193C3.9094 14.2532 3.91457 13.6728 4.2881 13.5277L22.83 6.45938C23.1641 6.3298 23.509 6.6206 23.4378 6.97163Z" fill="#4F4F4F"/>
<path id="Vector_2" d="M11.3631 20.2915L11.6649 17.4236L20.0415 9.23555L9.9292 15.8765L11.3631 20.2915Z" fill="#4F4F4F"/>
</g>
<defs>
<clipPath id="clip0_1_321">
<rect width="30" height="30" fill="white"/>
</clipPath>
</defs>
</svg>
