<svg width="30" height="30" viewBox="0 0 30 30" fill="none" xmlns="http://www.w3.org/2000/svg">
<g id="Layer_18.svg" clip-path="url(#clip0_1_317)">
<path id="Vector" d="M15.6108 6.35216C11.4313 6.35216 8.03229 9.75082 8.03076 13.9285C8.03016 15.3604 8.43077 16.7544 9.1891 17.9608L9.36918 18.2473L8.60385 21.0434L11.4714 20.2912L11.7482 20.4554C12.9114 21.1459 14.2449 21.511 15.6047 21.5116H15.6078C19.7839 21.5116 23.1829 18.1126 23.1847 13.9346C23.1855 11.9099 22.3981 10.0063 20.9675 8.57423C19.5369 7.14182 17.6345 6.35276 15.6108 6.35216ZM20.0677 17.186C19.8779 17.718 18.9678 18.2039 18.5304 18.2689C18.138 18.3276 17.6412 18.352 17.0958 18.1786C16.7652 18.0737 16.3409 17.9334 15.7973 17.6989C13.5119 16.7124 12.0195 14.4115 11.9058 14.2597C11.792 14.1077 10.9756 13.0248 10.9756 11.9035C10.9756 10.7823 11.5639 10.2314 11.7729 10.0033C11.9815 9.77516 12.2286 9.71827 12.3803 9.71827C12.5321 9.71827 12.6842 9.71979 12.8168 9.72619C12.9567 9.73318 13.1444 9.67325 13.3293 10.1171C13.5192 10.5733 13.9748 11.6943 14.0317 11.8083C14.0886 11.9224 14.1266 12.0553 14.0507 12.2074C13.9746 12.3592 13.9368 12.4544 13.8228 12.5874C13.7087 12.7202 13.5836 12.8843 13.4811 12.9864C13.3671 13.0999 13.2485 13.2234 13.3814 13.4513C13.5144 13.6794 13.9715 14.4252 14.6486 15.029C15.5186 15.805 16.2525 16.0457 16.4804 16.1597C16.7083 16.2738 16.8411 16.2546 16.9739 16.1028C17.1067 15.9508 17.5433 15.4375 17.6951 15.2098C17.8469 14.9819 17.9987 15.0196 18.2076 15.0956C18.4163 15.1717 19.5363 15.7226 19.7641 15.8366C19.992 15.9508 20.1438 16.0076 20.2007 16.1028C20.2575 16.1977 20.2575 16.654 20.0677 17.186Z" fill="#4F4F4F"/>
<path id="Vector_2" d="M15 0C6.71581 0 0 6.71581 0 15C0 23.2842 6.71581 30 15 30C23.2842 30 30 23.2842 30 15C30 6.71581 23.2842 0 15 0ZM15.6078 23.0509C15.6074 23.0509 15.608 23.0509 15.6078 23.0509H15.6041C14.0783 23.0503 12.5792 22.6676 11.2479 21.9412L6.41527 23.2091L7.70867 18.485C6.91079 17.1025 6.49102 15.5341 6.49193 13.9278C6.49345 8.90138 10.5832 4.81222 15.6078 4.81222C18.0464 4.81313 20.3354 5.7625 22.0565 7.48571C23.7776 9.20861 24.7252 11.4991 24.724 13.935C24.7218 18.9614 20.632 23.0509 15.6078 23.0509Z" fill="#4F4F4F"/>
</g>
<defs>
<clipPath id="clip0_1_317">
<rect width="30" height="30" fill="white"/>
</clipPath>
</defs>
</svg>
